<?xml version="1.0" encoding="utf-8"?>
<!-- Generator: Adobe Illustrator 16.0.0, SVG Export Plug-In . SVG Version: 6.00 Build 0)  -->
<!DOCTYPE svg PUBLIC "-//W3C//DTD SVG 1.1//EN" "http://www.w3.org/Graphics/SVG/1.1/DTD/svg11.dtd">
<svg version="1.1" id="Layer_1" xmlns="http://www.w3.org/2000/svg" xmlns:xlink="http://www.w3.org/1999/xlink" x="0px" y="0px" viewBox="0 0 457.616 130.564" style="enable-background:new 0 0 457.616 130.564;"
	 xml:space="preserve">
<style type="text/css">
<![CDATA[
	.st0{fill:#E3463A;}
	.st1{fill:#333334;}
]]>
</style>
<g>
	<g>
		<path class="st1" d="M134.294,1.076h11.117c0.557,0,1.315,0.021,2.272,0.06c0.956,0.04,1.991,0.159,3.108,0.358
			c1.115,0.2,2.25,0.518,3.407,0.957c1.155,0.438,2.19,1.075,3.108,1.912c0.917,0.837,1.673,1.894,2.271,3.168
			c0.598,1.275,0.897,2.83,0.897,4.662c0,2.031-0.349,3.706-1.046,5.021c-0.698,1.315-1.576,2.382-2.63,3.198
			c-1.057,0.816-2.223,1.425-3.497,1.823c-1.275,0.398-2.491,0.677-3.646,0.837l12.313,20.322h-4.483l-11.894-20.083h-7.352v20.083
			h-3.945V1.076z M138.239,19.724h8.368c2.071,0,3.755-0.258,5.05-0.776c1.294-0.517,2.302-1.155,3.019-1.912
			c0.717-0.757,1.205-1.574,1.464-2.451c0.259-0.876,0.389-1.674,0.389-2.391c0-0.718-0.13-1.514-0.389-2.392
			c-0.259-0.875-0.747-1.692-1.464-2.45c-0.717-0.757-1.725-1.395-3.019-1.913c-1.295-0.518-2.979-0.777-5.05-0.777h-8.368V19.724z"
			/>
		<path class="st1" d="M169.737,1.076h25.881v3.586h-21.936v15.062h20.561v3.588h-20.561v16.496h22.892v3.587h-26.837V1.076z"/>
		<path class="st1" d="M218.151,1.076h4.065l17.812,42.319h-4.423l-4.602-11.237h-22.414l-4.782,11.237h-4.124L218.151,1.076z
			 M220.004,5.379l-9.862,23.192h19.425L220.004,5.379z"/>
		<path class="st1" d="M280.971,36.759c-2.031,2.75-4.383,4.723-7.053,5.917c-2.67,1.196-5.558,1.795-8.666,1.795
			c-3.228,0-6.187-0.549-8.876-1.645c-2.69-1.096-4.991-2.63-6.904-4.602c-1.913-1.974-3.407-4.324-4.483-7.054
			c-1.076-2.729-1.614-5.709-1.614-8.936c0-3.229,0.538-6.196,1.614-8.906c1.076-2.709,2.57-5.051,4.483-7.023
			s4.214-3.517,6.904-4.632C259.065,0.559,262.024,0,265.252,0c2.869,0,5.549,0.508,8.039,1.524c2.489,1.016,4.672,2.72,6.545,5.111
			l-3.228,2.689c-1.315-1.992-2.999-3.446-5.052-4.364c-2.052-0.916-4.153-1.375-6.305-1.375c-2.75,0-5.23,0.478-7.442,1.435
			c-2.211,0.957-4.094,2.271-5.647,3.945c-1.555,1.673-2.75,3.646-3.587,5.917c-0.836,2.271-1.255,4.723-1.255,7.353
			s0.419,5.08,1.255,7.352c0.837,2.271,2.033,4.243,3.587,5.917c1.554,1.674,3.437,2.989,5.647,3.945
			c2.212,0.956,4.692,1.434,7.442,1.434c1.075,0,2.19-0.128,3.347-0.388c1.155-0.259,2.281-0.658,3.377-1.196
			s2.142-1.214,3.139-2.031c0.995-0.816,1.872-1.803,2.63-2.958L280.971,36.759z"/>
		<path class="st1" d="M288.204,1.076h3.944v18.648h23.67V1.076h3.944v42.319h-3.944V23.312h-23.67v20.083h-3.944V1.076z"/>
		<path class="st1" d="M134.629,54.058h13.287v22.486h25.809V54.058h13.288v60.305h-13.288V88.298h-25.809v26.064h-13.287V54.058z"
			/>
		<path class="st1" d="M199.788,54.058h40.97v12.266h-27.683v11.243h26.149v12.266h-26.149v12.265h29.216v12.266h-42.503V54.058z"/>
		<path class="st1" d="M272.783,54.058h10.987l26.234,60.305h-14.991l-5.195-12.777h-23.424l-5.025,12.777h-14.65L272.783,54.058z
			 M277.894,71.604l-7.325,18.739h14.735L277.894,71.604z"/>
		<path class="st1" d="M316.052,54.058h23.339c3.066,0,5.976,0.298,8.73,0.894c2.753,0.597,5.166,1.591,7.24,2.981
			c2.071,1.393,3.719,3.266,4.939,5.622c1.222,2.357,1.832,5.295,1.832,8.815c0,4.259-1.107,7.879-3.322,10.86
			s-5.451,4.869-9.71,5.663l15.332,25.469h-15.928l-12.606-24.104h-6.559v24.104h-13.288V54.058z M329.34,79.014h7.836
			c1.192,0,2.456-0.043,3.79-0.128s2.541-0.341,3.621-0.767c1.077-0.426,1.972-1.092,2.682-2.001
			c0.711-0.907,1.065-2.186,1.065-3.833c0-1.533-0.312-2.753-0.938-3.663c-0.625-0.907-1.419-1.604-2.384-2.086
			c-0.967-0.482-2.074-0.81-3.322-0.98c-1.25-0.17-2.471-0.255-3.662-0.255h-8.688V79.014z"/>
		<path class="st1" d="M381.383,65.812h-17.206V54.058h47.699v11.754h-17.205v48.551h-13.288V65.812z"/>
		<path class="st1" d="M448.416,68.793c-1.079-1.363-2.542-2.37-4.387-3.024c-1.846-0.652-3.593-0.979-5.238-0.979
			c-0.966,0-1.959,0.114-2.981,0.341c-1.021,0.228-1.988,0.584-2.896,1.065c-0.909,0.483-1.648,1.122-2.215,1.916
			c-0.568,0.796-0.852,1.761-0.852,2.896c0,1.817,0.682,3.208,2.044,4.173c1.362,0.967,3.08,1.789,5.153,2.471
			c2.072,0.681,4.302,1.362,6.687,2.044s4.613,1.647,6.687,2.896c2.071,1.249,3.79,2.925,5.152,5.025
			c1.363,2.102,2.045,4.912,2.045,8.433c0,3.351-0.626,6.275-1.874,8.772c-1.249,2.499-2.938,4.572-5.067,6.218
			c-2.13,1.648-4.601,2.868-7.411,3.662c-2.811,0.795-5.779,1.193-8.9,1.193c-3.919,0-7.554-0.596-10.903-1.789
			c-3.351-1.192-6.474-3.122-9.369-5.792l9.454-10.392c1.363,1.818,3.08,3.224,5.153,4.217c2.072,0.994,4.217,1.49,6.432,1.49
			c1.077,0,2.172-0.128,3.279-0.383c1.106-0.256,2.1-0.639,2.98-1.15c0.88-0.512,1.589-1.163,2.129-1.959
			c0.54-0.794,0.811-1.731,0.811-2.811c0-1.816-0.697-3.25-2.088-4.302c-1.392-1.05-3.138-1.944-5.237-2.683
			c-2.102-0.737-4.374-1.476-6.815-2.215c-2.441-0.737-4.713-1.731-6.813-2.981c-2.101-1.248-3.848-2.896-5.238-4.939
			c-1.393-2.045-2.087-4.741-2.087-8.093c0-3.236,0.639-6.074,1.917-8.517c1.277-2.441,2.981-4.485,5.11-6.133
			s4.585-2.882,7.367-3.705s5.65-1.236,8.604-1.236c3.406,0,6.699,0.484,9.88,1.449c3.18,0.966,6.048,2.584,8.604,4.854
			L448.416,68.793z"/>
	</g>
	<g>
		<g>
			<path class="st0" d="M0,0v114.093h40.538l16.934,16.471l16.078-16.471h40.539V0H0z M84.266,67.087
				C67.111,84.306,56.344,88.925,56.344,88.925s0-0.154,0-0.449h-0.082c0,0.295,0,0.449,0,0.449S45.494,84.306,28.34,67.087
				c-17.155-17.217-12.07-42.42,6.729-42.42c13.453,0,21.193,11.34,21.193,21.422h0.082c0-10.082,7.74-21.422,21.193-21.422
				C96.336,24.667,101.421,49.871,84.266,67.087z"/>
		</g>
	</g>
</g>
</svg>
