<?xml version="1.0" encoding="utf-8"?>
<!-- Generator: Adobe Illustrator 16.0.0, SVG Export Plug-In . SVG Version: 6.00 Build 0)  -->
<!DOCTYPE svg PUBLIC "-//W3C//DTD SVG 1.1//EN" "http://www.w3.org/Graphics/SVG/1.1/DTD/svg11.dtd">
<svg version="1.1" id="Layer_1" xmlns="http://www.w3.org/2000/svg" xmlns:xlink="http://www.w3.org/1999/xlink" x="0px" y="0px"
	 width="409.006px" height="299.311px" viewBox="0 0 409.006 299.311" style="enable-background:new 0 0 409.006 299.311;"
	 xml:space="preserve">
<style type="text/css">
<![CDATA[
	.st0{fill:#E1553D;}
	.st1{fill:#FFFFFF;}
	.st2{fill:#00A9BA;}
]]>
</style>
<g>
	<rect x="24.841" y="144.372" class="st2" width="61.312" height="154.938"/>
	<rect x="96.984" y="108.278" class="st2" width="61.308" height="191.032"/>
	<rect x="169.138" y="72.188" class="st2" width="61.307" height="227.123"/>
	<rect x="241.25" y="36.094" class="st2" width="61.307" height="263.217"/>
	<rect x="313.404" class="st2" width="61.311" height="299.311"/>
	<path class="st1" d="M1.593,240.361L0,226.023c1.724-0.191,173.007-19.347,224.617-35.769
		c51.674-16.443,156.492-75.795,165.097-81.945l8.389,11.736c-9.131,6.526-114.95,66.722-169.11,83.955
		C176.026,220.854,8.69,239.572,1.593,240.361z"/>
	<path class="st0" d="M1.195,236.444l-0.797-7.168c1.728-0.192,173.363-19.389,225.313-35.921
		c51.963-16.531,157.438-76.255,166.101-82.445l4.193,5.869c-8.77,6.267-115.528,66.723-168.106,83.449
		C175.269,216.978,8.278,235.658,1.195,236.444z"/>
	<g>
		<polygon class="st0" points="407.326,102.79 405.133,114.303 402.932,125.811 393.432,113.478 383.943,101.149 395.629,101.971 		
			"/>
		<path class="st0" d="M403.727,129.148l-22.81-29.623l28.089,1.972L403.727,129.148z M386.97,102.773l15.167,19.699l3.51-18.39
			L386.97,102.773z"/>
	</g>
</g>
</svg>
