<?xml version="1.0" encoding="utf-8"?>
<!-- Generator: Adobe Illustrator 16.0.0, SVG Export Plug-In . SVG Version: 6.00 Build 0)  -->
<!DOCTYPE svg PUBLIC "-//W3C//DTD SVG 1.1//EN" "http://www.w3.org/Graphics/SVG/1.1/DTD/svg11.dtd">
<svg version="1.1" id="Layer_1" xmlns="http://www.w3.org/2000/svg" xmlns:xlink="http://www.w3.org/1999/xlink" x="0px" y="0px"
	 width="322.109px" height="268.847px" viewBox="0 0 322.109 268.847" style="enable-background:new 0 0 322.109 268.847;"
	 xml:space="preserve">
<style type="text/css">
<![CDATA[
	.st0{fill:#E3463A;}
	.st1{fill:#FFFFFF;}
	.st2{fill:#00A9BA;}
]]>
</style>
<g>
	<g>
		<circle class="st2" cx="260.124" cy="129.258" r="37.81"/>
		<path class="st2" d="M257.915,172.133c-77.527,0-63.815,80.154-63.815,80.154h126.955
			C321.055,252.287,335.443,172.133,257.915,172.133z"/>
	</g>
	<g>
		<circle class="st2" cx="66.962" cy="129.258" r="37.811"/>
		<path class="st2" d="M64.753,172.133c-77.528,0-63.816,80.154-63.816,80.154h126.955
			C127.892,252.287,142.281,172.133,64.753,172.133z"/>
	</g>
	<g>
		<g>
			<path class="st2" d="M199.382,145.026c0,20.883-16.929,37.812-37.81,37.812c-20.883,0-37.811-16.929-37.811-37.812
				c0-20.88,16.928-37.81,37.811-37.81C182.453,107.217,199.382,124.146,199.382,145.026z"/>
			<path class="st1" d="M161.572,183.629c-21.285,0-38.602-17.317-38.602-38.603c0-21.284,17.316-38.601,38.602-38.601
				c21.284,0,38.601,17.316,38.601,38.601C200.173,166.312,182.856,183.629,161.572,183.629z M161.572,108.008
				c-20.413,0-37.02,16.606-37.02,37.019c0,20.413,16.607,37.021,37.02,37.021c20.412,0,37.019-16.607,37.019-37.021
				C198.591,124.614,181.984,108.008,161.572,108.008z"/>
		</g>
		<g>
			<path class="st2" d="M159.363,187.901c-77.528,0-63.816,80.154-63.816,80.154h126.956
				C222.503,268.056,236.892,187.901,159.363,187.901z"/>
			<path class="st1" d="M223.165,268.847H94.88l-0.113-0.657c-0.063-0.372-6.118-37.395,13.904-61.133
				c11.163-13.235,28.219-19.946,50.692-19.946c22.456,0,39.447,6.701,50.501,19.916c19.857,23.739,13.484,60.798,13.417,61.169
				L223.165,268.847z M96.228,267.265h125.599c0.745-5.019,4.769-37.778-13.182-59.23c-10.74-12.834-27.32-19.342-49.282-19.342
				c-21.982,0-38.628,6.52-49.478,19.378C91.791,229.515,95.523,262.227,96.228,267.265z"/>
		</g>
	</g>
	<g>
		<g>
			<path class="st0" d="M38.5,0v60.093h21.352l8.919,8.676l8.468-8.676h21.353V0H38.5z M82.63,35.574
				c-8.17,8.196-13.521,10.857-14.308,11.224c0,0.033,0,0.052,0,0.052s-0.023-0.01-0.056-0.025
				c-0.033,0.015-0.056,0.025-0.056,0.025s0-0.019,0-0.052c-0.788-0.366-6.139-3.027-14.305-11.224
				c-8.858-8.89-3.476-21.902,3.474-21.902c6.481,0,10.393,5.098,10.887,10.01c0.494-4.912,4.401-10.01,10.888-10.01
				C86.102,13.672,91.488,26.685,82.63,35.574z"/>
		</g>
	</g>
	<g>
		<g>
			<path class="st0" d="M227.94,0v60.093h21.352l8.919,8.676l8.468-8.676h21.353V0H227.94z M272.07,35.574
				c-8.17,8.196-13.521,10.857-14.308,11.224c0,0.033,0,0.052,0,0.052s-0.023-0.01-0.056-0.025
				c-0.033,0.015-0.057,0.025-0.057,0.025s0-0.019,0-0.052c-0.787-0.366-6.139-3.027-14.305-11.224
				c-8.858-8.89-3.476-21.902,3.474-21.902c6.481,0,10.393,5.098,10.888,10.01c0.493-4.912,4.401-10.01,10.888-10.01
				C275.542,13.672,280.929,26.685,272.07,35.574z"/>
		</g>
	</g>
	<g>
		<g>
			<path class="st0" d="M133.445,20.016v60.093h21.352l8.919,8.676l8.468-8.676h21.353V20.016H133.445z M177.575,55.59
				c-8.17,8.196-13.521,10.857-14.308,11.224c0,0.033,0,0.052,0,0.052s-0.023-0.01-0.057-0.025
				c-0.032,0.015-0.056,0.025-0.056,0.025s0-0.019,0-0.052c-0.788-0.366-6.139-3.027-14.305-11.224
				c-8.858-8.89-3.476-21.902,3.474-21.902c6.481,0,10.393,5.098,10.887,10.01c0.494-4.912,4.402-10.01,10.889-10.01
				C181.047,33.688,186.434,46.7,177.575,55.59z"/>
		</g>
	</g>
</g>
</svg>
