<?xml version="1.0" encoding="utf-8"?>
<!-- Generator: Adobe Illustrator 16.0.0, SVG Export Plug-In . SVG Version: 6.00 Build 0)  -->
<!DOCTYPE svg PUBLIC "-//W3C//DTD SVG 1.1//EN" "http://www.w3.org/Graphics/SVG/1.1/DTD/svg11.dtd">
<svg version="1.1" id="Layer_1" xmlns="http://www.w3.org/2000/svg" xmlns:xlink="http://www.w3.org/1999/xlink" x="0px" y="0px"
	 width="412.411px" height="321.18px" viewBox="0 0 412.411 321.18" style="enable-background:new 0 0 412.411 321.18;"
	 xml:space="preserve">
<style type="text/css">
<![CDATA[
	.st0{fill:#E3463A;stroke:#E3463A;stroke-width:4.6213;}
	.st1{fill:#E3463A;stroke:#E3463A;stroke-width:1.6528;}
	.st2{fill:#E3463A;stroke:#E3463A;stroke-width:2.4168;}
	.st3{fill:#00A9BA;}
]]>
</style>
<g>
	
		<rect x="140.825" y="68.776" transform="matrix(0.9774 0.2113 -0.2113 0.9774 44.6793 -26.9881)" class="st3" width="15.613" height="253.617"/>
	
		<rect x="102.315" y="187.778" transform="matrix(0.2113 0.9774 -0.9774 0.2113 371.8775 -69.6935)" class="st3" width="253.618" height="15.613"/>
	<path class="st3" d="M225.055,55.748c0,20.735-16.801,37.542-37.533,37.542c-20.735,0-37.541-16.807-37.541-37.542
		c0-20.729,16.806-37.539,37.541-37.539C208.254,18.209,225.055,35.019,225.055,55.748z"/>
	<rect x="157.868" y="127.545" class="st3" width="62.619" height="12.758"/>
	<rect x="155.462" y="164.751" class="st3" width="72.403" height="12.758"/>
	<rect x="141.032" y="201.921" class="st3" width="94.771" height="13.539"/>
	<rect x="141.032" y="239.737" class="st3" width="99.359" height="13.863"/>
	<rect x="129.067" y="277.483" class="st3" width="115.354" height="14.939"/>
	<g>
		<path class="st0" d="M251.597,79.506c1.479-2.357,2.784-4.645,3.917-6.862c1.132-2.219,2.091-4.472,2.876-6.759
			c0.786-2.288,1.375-4.655,1.769-7.105c0.392-2.449,0.589-5.105,0.589-7.972c0-2.865-0.197-5.499-0.589-7.902
			c-0.394-2.402-0.96-4.714-1.698-6.933c-0.74-2.218-1.664-4.412-2.773-6.585c-1.109-2.172-2.381-4.459-3.812-6.862l3.674-2.773
			c3.096,4.345,5.5,9.197,7.209,14.558c1.71,5.361,2.565,10.86,2.565,16.498c0,5.361-0.844,10.744-2.53,16.151
			c-1.688,5.407-4.193,10.374-7.521,14.903L251.597,79.506z"/>
		<path class="st0" d="M274.333,82.232c2.033-2.527,3.789-5.33,5.269-8.411c1.479-3.08,2.727-6.285,3.743-9.612
			s1.771-6.7,2.265-10.12c0.492-3.42,0.739-6.731,0.739-9.937c0-3.572-0.277-7.023-0.832-10.352
			c-0.555-3.327-1.34-6.562-2.357-9.704c-1.016-3.143-2.264-6.207-3.742-9.196c-1.479-2.988-3.175-5.992-5.084-9.012l4.344-2.772
			c2.156,2.957,4.051,6.115,5.685,9.474c1.632,3.358,3.004,6.793,4.113,10.305c1.108,3.513,1.955,7.057,2.542,10.629
			c0.584,3.574,0.877,7.117,0.877,10.629c0,7.334-1.125,14.573-3.373,21.721c-2.25,7.147-5.406,13.587-9.474,19.316L274.333,82.232z
			"/>
	</g>
	<g>
		<path class="st0" d="M119.715,82.047c-3.327-4.529-5.833-9.496-7.521-14.903c-1.687-5.407-2.53-10.79-2.53-16.151
			c0-5.638,0.855-11.137,2.565-16.498c1.71-5.36,4.114-10.213,7.209-14.558l3.674,2.773c-1.432,2.403-2.703,4.69-3.812,6.862
			c-1.109,2.173-2.033,4.367-2.772,6.585c-0.739,2.219-1.305,4.53-1.699,6.933c-0.392,2.403-0.589,5.037-0.589,7.902
			c0,2.866,0.197,5.522,0.589,7.972c0.394,2.45,0.982,4.817,1.768,7.105c0.786,2.287,1.745,4.54,2.876,6.759
			c1.133,2.218,2.438,4.505,3.917,6.862L119.715,82.047z"/>
		<path class="st0" d="M95.939,85.374c-4.067-5.729-7.224-12.169-9.474-19.316c-2.249-7.147-3.374-14.387-3.374-21.721
			c0-3.512,0.293-7.055,0.878-10.629c0.586-3.572,1.433-7.116,2.542-10.629c1.109-3.512,2.481-6.946,4.113-10.305
			c1.633-3.358,3.528-6.517,5.684-9.474l4.344,2.772c-1.909,3.02-3.605,6.023-5.083,9.012c-1.479,2.989-2.727,6.054-3.743,9.196
			c-1.017,3.143-1.803,6.377-2.357,9.704c-0.555,3.328-0.832,6.779-0.832,10.352c0,3.205,0.247,6.517,0.739,9.937
			c0.494,3.42,1.248,6.793,2.265,10.12s2.265,6.532,3.743,9.612c1.479,3.081,3.235,5.884,5.269,8.411L95.939,85.374z"/>
	</g>
	
		<rect x="332.204" y="154.113" transform="matrix(0.9774 0.2112 -0.2112 0.9774 54.1484 -66.0595)" class="st3" width="8.165" height="132.632"/>
	
		<rect x="312.067" y="216.347" transform="matrix(0.2113 0.9774 -0.9774 0.2113 513.8885 -195.9856)" class="st3" width="132.632" height="8.165"/>
	<path class="st3" d="M376.25,147.302c0,10.839-8.785,19.63-19.625,19.63c-10.848,0-19.629-8.791-19.629-19.63
		c0-10.841,8.781-19.632,19.629-19.632C367.465,127.67,376.25,136.461,376.25,147.302z"/>
	<rect x="341.116" y="184.843" class="st3" width="32.752" height="6.672"/>
	<rect x="339.864" y="204.305" class="st3" width="37.859" height="6.672"/>
	<rect x="332.315" y="223.743" class="st3" width="49.562" height="7.08"/>
	<rect x="332.315" y="243.521" class="st3" width="51.959" height="7.25"/>
	<g>
		<path class="st2" d="M390.128,159.727c0.773-1.232,1.457-2.429,2.049-3.589s1.094-2.338,1.504-3.534s0.719-2.435,0.924-3.716
			c0.205-1.28,0.309-2.67,0.309-4.169c0-1.498-0.104-2.876-0.309-4.133c-0.205-1.256-0.5-2.465-0.887-3.625
			s-0.871-2.308-1.451-3.443s-1.244-2.332-1.994-3.589l1.922-1.45c1.619,2.271,2.877,4.81,3.77,7.612
			c0.895,2.804,1.342,5.68,1.342,8.628c0,2.804-0.441,5.619-1.322,8.446c-0.883,2.828-2.193,5.426-3.934,7.794L390.128,159.727z"/>
		<path class="st2" d="M402.019,161.152c1.064-1.321,1.982-2.787,2.756-4.398c0.773-1.61,1.426-3.286,1.957-5.026
			s0.926-3.504,1.184-5.293c0.258-1.788,0.387-3.52,0.387-5.195c0-1.869-0.145-3.674-0.434-5.414
			c-0.291-1.74-0.701-3.432-1.232-5.075c-0.533-1.644-1.186-3.246-1.959-4.81c-0.773-1.562-1.66-3.133-2.658-4.712l2.271-1.45
			c1.129,1.547,2.119,3.198,2.973,4.954c0.854,1.757,1.572,3.553,2.152,5.39s1.021,3.689,1.328,5.559s0.459,3.722,0.459,5.559
			c0,3.835-0.588,7.62-1.764,11.358c-1.178,3.737-2.828,7.105-4.955,10.102L402.019,161.152z"/>
	</g>
	<g>
		<path class="st2" d="M321.163,161.049c-1.739-2.368-3.051-4.966-3.933-7.794c-0.883-2.827-1.324-5.643-1.324-8.446
			c0-2.948,0.448-5.824,1.342-8.628c0.895-2.803,2.151-5.341,3.77-7.612l1.922,1.45c-0.748,1.257-1.414,2.453-1.994,3.589
			s-1.062,2.283-1.449,3.443s-0.684,2.369-0.889,3.625c-0.205,1.257-0.309,2.635-0.309,4.133c0,1.499,0.104,2.889,0.309,4.169
			c0.205,1.281,0.514,2.52,0.924,3.716c0.412,1.196,0.913,2.374,1.505,3.534c0.593,1.16,1.275,2.356,2.048,3.589L321.163,161.049z"
			/>
		<path class="st2" d="M308.729,162.789c-2.127-2.996-3.778-6.364-4.954-10.102c-1.176-3.738-1.765-7.523-1.765-11.358
			c0-1.837,0.153-3.689,0.46-5.559c0.306-1.869,0.748-3.722,1.328-5.559s1.298-3.633,2.151-5.39
			c0.854-1.756,1.845-3.407,2.973-4.954l2.271,1.45c-0.999,1.579-1.885,3.149-2.658,4.712c-0.773,1.563-1.426,3.166-1.958,4.81
			c-0.531,1.644-0.942,3.335-1.232,5.075s-0.436,3.545-0.436,5.414c0,1.676,0.13,3.407,0.387,5.195
			c0.259,1.789,0.653,3.553,1.186,5.293c0.531,1.74,1.184,3.416,1.957,5.026c0.773,1.611,1.691,3.077,2.755,4.398L308.729,162.789z"
			/>
	</g>
	
		<rect x="21.49" y="138.847" transform="matrix(0.9774 0.2113 -0.2113 0.9774 39.4623 -0.9723)" class="st3" width="5.584" height="90.706"/>
	
		<rect x="7.716" y="181.408" transform="matrix(0.2113 0.9774 -0.9774 0.2113 221.8981 93.4098)" class="st3" width="90.706" height="5.584"/>
	<path class="st3" d="M51.612,134.186c0,7.417-6.008,13.427-13.426,13.427c-7.412,0-13.422-6.01-13.422-13.427
		c0-7.413,6.01-13.423,13.422-13.423C45.604,120.763,51.612,126.772,51.612,134.186z"/>
	<rect x="27.583" y="159.865" class="st3" width="22.396" height="4.562"/>
	<rect x="26.729" y="173.17" class="st3" width="25.885" height="4.562"/>
	<rect x="21.565" y="186.466" class="st3" width="33.892" height="4.842"/>
	<rect x="21.565" y="199.991" class="st3" width="35.531" height="4.959"/>
	<g>
		<path class="st1" d="M61.096,142.687c0.529-0.843,0.996-1.661,1.401-2.455c0.405-0.793,0.748-1.599,1.029-2.417
			c0.281-0.818,0.492-1.665,0.632-2.541c0.14-0.876,0.21-1.826,0.21-2.851c0-1.025-0.07-1.967-0.21-2.827
			c-0.141-0.858-0.343-1.686-0.607-2.479c-0.265-0.794-0.595-1.578-0.992-2.355c-0.397-0.776-0.852-1.595-1.364-2.454l1.314-0.992
			c1.107,1.554,1.967,3.289,2.579,5.206c0.611,1.918,0.917,3.885,0.917,5.901c0,1.917-0.302,3.843-0.905,5.776
			c-0.604,1.934-1.5,3.71-2.69,5.33L61.096,142.687z"/>
		<path class="st1" d="M69.227,143.661c0.728-0.903,1.355-1.906,1.884-3.008s0.975-2.248,1.339-3.438
			c0.364-1.19,0.633-2.396,0.81-3.62c0.176-1.223,0.264-2.407,0.264-3.554c0-1.277-0.099-2.512-0.297-3.702
			c-0.198-1.189-0.479-2.347-0.843-3.471c-0.364-1.124-0.81-2.22-1.339-3.289c-0.529-1.068-1.135-2.143-1.818-3.223l1.554-0.992
			c0.771,1.059,1.449,2.188,2.033,3.389c0.583,1.201,1.074,2.43,1.471,3.686c0.397,1.256,0.699,2.523,0.909,3.802
			c0.209,1.278,0.314,2.545,0.314,3.801c0,2.623-0.402,5.212-1.207,7.769c-0.805,2.556-1.934,4.859-3.388,6.908L69.227,143.661z"/>
	</g>
	<g>
		<path class="st1" d="M13.924,143.591c-1.19-1.62-2.086-3.396-2.69-5.33c-0.603-1.934-0.905-3.859-0.905-5.776
			c0-2.017,0.306-3.983,0.917-5.901c0.612-1.917,1.471-3.652,2.579-5.206l1.314,0.992c-0.512,0.859-0.967,1.678-1.364,2.454
			c-0.396,0.777-0.727,1.562-0.992,2.355c-0.264,0.793-0.467,1.62-0.607,2.479c-0.14,0.86-0.21,1.802-0.21,2.827
			c0,1.024,0.07,1.975,0.21,2.851c0.141,0.876,0.352,1.723,0.632,2.541c0.281,0.818,0.624,1.624,1.029,2.417
			c0.405,0.794,0.872,1.612,1.401,2.455L13.924,143.591z"/>
		<path class="st1" d="M5.421,144.78c-1.455-2.049-2.583-4.353-3.388-6.908c-0.804-2.557-1.207-5.146-1.207-7.769
			c0-1.256,0.105-2.522,0.314-3.801c0.21-1.278,0.512-2.546,0.909-3.802c0.396-1.256,0.887-2.484,1.471-3.686
			c0.584-1.201,1.262-2.33,2.033-3.389l1.554,0.992c-0.683,1.08-1.29,2.154-1.818,3.223c-0.529,1.069-0.975,2.165-1.339,3.289
			c-0.363,1.124-0.645,2.281-0.843,3.471c-0.198,1.19-0.297,2.425-0.297,3.702c0,1.146,0.088,2.331,0.264,3.554
			c0.177,1.224,0.446,2.43,0.81,3.62c0.364,1.189,0.81,2.336,1.339,3.438s1.157,2.104,1.884,3.008L5.421,144.78z"/>
	</g>
</g>
</svg>
