<?xml version="1.0" encoding="utf-8"?>
<!-- Generator: Adobe Illustrator 16.0.0, SVG Export Plug-In . SVG Version: 6.00 Build 0)  -->
<!DOCTYPE svg PUBLIC "-//W3C//DTD SVG 1.1//EN" "http://www.w3.org/Graphics/SVG/1.1/DTD/svg11.dtd">
<svg version="1.1" id="Layer_1" xmlns="http://www.w3.org/2000/svg" xmlns:xlink="http://www.w3.org/1999/xlink" x="0px" y="0px"
	 width="114.089px" height="130.564px" viewBox="0 0 114.089 130.564" style="enable-background:new 0 0 114.089 130.564;"
	 xml:space="preserve">
<style type="text/css">
<![CDATA[
	.st0{fill:#E3463A;}
]]>
</style>
<g>
	<g>
		<g>
			<path class="st0" d="M0,0v114.093h40.538l16.934,16.471l16.078-16.471h40.539V0H0z M84.266,67.087
				C67.111,84.306,56.344,88.925,56.344,88.925s0-0.154,0-0.449h-0.082c0,0.295,0,0.449,0,0.449S45.494,84.306,28.34,67.087
				c-17.155-17.217-12.07-42.42,6.729-42.42c13.453,0,21.193,11.34,21.193,21.422h0.082c0-10.082,7.74-21.422,21.193-21.422
				C96.336,24.667,101.421,49.871,84.266,67.087z"/>
		</g>
	</g>
</g>
</svg>
